<svg id="Layer_1" data-name="Layer 1" xmlns="http://www.w3.org/2000/svg" viewBox="0 0 75 75"><defs><style>.cls-1{fill:#59576d;}</style></defs><path class="cls-1" d="M37.5,14.82A22.68,22.68,0,1,0,60.17,37.5,22.68,22.68,0,0,0,37.5,14.82Zm0,6.87a3.16,3.16,0,1,1-3.16,3.17A3.17,3.17,0,0,1,37.5,21.69ZM51.72,32.75H42.24V53.3H39.08V43.81H35.92V53.3H32.76V32.75H23.28V29.6H51.72Z"/><path class="cls-1" d="M37.5,10.46a27,27,0,1,0,27,27A27.07,27.07,0,0,0,37.5,10.46Zm0,51.71A24.67,24.67,0,1,1,62.16,37.5,24.69,24.69,0,0,1,37.5,62.17Z"/></svg>