<svg id="Layer_1" data-name="Layer 1" xmlns="http://www.w3.org/2000/svg" viewBox="0 0 100 100"><defs><style>.cls-1{fill:#59576d;}</style></defs><path class="cls-1" d="M48.35,27.09A22.67,22.67,0,1,0,71,49.76,22.67,22.67,0,0,0,48.35,27.09Zm0,6.87a3.16,3.16,0,1,1-3.16,3.16A3.16,3.16,0,0,1,48.35,34ZM62.57,45H53.09V65.56H49.93V56.08H46.77v9.48H43.61V45H34.13V41.86H62.57Z"/><path class="cls-1" d="M48.35,22.73a27,27,0,1,0,27,27A27.06,27.06,0,0,0,48.35,22.73Zm0,51.7A24.67,24.67,0,1,1,73,49.76,24.69,24.69,0,0,1,48.35,74.43Z"/></svg>