<svg id="Layer_1" data-name="Layer 1" xmlns="http://www.w3.org/2000/svg" viewBox="0 0 75 75"><defs><style>.cls-1{fill:#59576d;}</style></defs><path id="path8" class="cls-1" d="M67.5,36.51v2c0,.11,0,.21,0,.32-.11.86-.17,1.72-.31,2.57a21.19,21.19,0,0,1-2.94,7.73,22,22,0,0,1-9.12,8.26,21.06,21.06,0,0,1-7,2.08l-1.63.18H25.34L25,59.57a18.17,18.17,0,0,1-6.12-1.47,18.67,18.67,0,0,1-9.48-9,17.56,17.56,0,0,1-1.75-5.83L7.5,41.78V39.87c0-.11,0-.22.06-.32A17.84,17.84,0,0,1,8.71,34.2a18.59,18.59,0,0,1,9.35-10.27A18.26,18.26,0,0,1,25.37,22a20.56,20.56,0,0,1,3.76.18.51.51,0,0,0,.36-.12,22.29,22.29,0,0,1,6.14-4.45,21.35,21.35,0,0,1,7.07-2.08l1.75-.19h1.79l.36.06c.89.1,1.78.17,2.66.31A21,21,0,0,1,57,18.66a22,22,0,0,1,8.29,9.13,21.2,21.2,0,0,1,2.08,7c.07.57.12,1.13.18,1.69M34,23.73l.06.08a23.81,23.81,0,0,1,3.53,2.13.39.39,0,0,0,.33,0,13.83,13.83,0,0,1,18.42,3.17A13.1,13.1,0,0,1,59,39.76a13.71,13.71,0,0,1-3.33,7A13.42,13.42,0,0,1,43.38,51.3a13,13,0,0,1-7.72-3.85c-2.74-2.77-5.5-5.52-8.26-8.29a2.21,2.21,0,0,0-1.3-.73,2.08,2.08,0,0,0-2.16,1.18,1.9,1.9,0,0,0,.46,2.33C27.47,45,30.51,48,33.58,51a14.26,14.26,0,0,0,1.68,1.43,16.07,16.07,0,0,0,7.5,2.89,18.29,18.29,0,0,0,6.39-.25,18,18,0,0,0,13.78-21,17.3,17.3,0,0,0-4-8.31A17.62,17.62,0,0,0,43.69,19.7a16.85,16.85,0,0,0-6.6,1.94A17.32,17.32,0,0,0,34,23.73M32.47,55.42l-.25-.23C31,54,29.71,52.83,28.47,51.63a1,1,0,0,0-.81-.34,15.24,15.24,0,0,1-3.75-.24,10.5,10.5,0,0,1,4.17-20.57,10.17,10.17,0,0,1,5.69,2.95c1.92,2,3.9,3.91,5.84,5.88a1.77,1.77,0,0,0,1.57.56,2,2,0,0,0,1.71-1.27,1.86,1.86,0,0,0-.44-2.07c-2-2.07-4-4.19-6.15-6.17A13.91,13.91,0,0,0,22,27a14.55,14.55,0,0,0,4.43,28.42h5.75l.33,0"/></svg>