<svg id="Layer_1" data-name="Layer 1" xmlns="http://www.w3.org/2000/svg" viewBox="0 0 100 100"><defs><style>.cls-1{fill:#59576d;}</style></defs><path id="path8" class="cls-1" d="M80,49v2a3.06,3.06,0,0,0,0,.32c-.11.86-.17,1.72-.31,2.57a21.19,21.19,0,0,1-2.94,7.73,22,22,0,0,1-9.12,8.26,21.29,21.29,0,0,1-7,2.08l-1.63.18H37.84a1.7,1.7,0,0,0-.31-.06,18.17,18.17,0,0,1-6.12-1.47,18.67,18.67,0,0,1-9.48-9,17.56,17.56,0,0,1-1.75-5.83L20,54.28V52.36c0-.1.05-.21.06-.31a17.77,17.77,0,0,1,1.15-5.35,18.64,18.64,0,0,1,9.35-10.28,18.42,18.42,0,0,1,7.31-1.89,21.48,21.48,0,0,1,3.76.17.46.46,0,0,0,.36-.11,22.29,22.29,0,0,1,6.14-4.45,21.6,21.6,0,0,1,7.07-2.09L57,27.87h1.79l.36.06c.89.1,1.78.16,2.66.31a21,21,0,0,1,7.69,2.92,22,22,0,0,1,8.29,9.13,21.13,21.13,0,0,1,2.08,7c.07.57.12,1.13.18,1.69M46.45,36.23l.06.08A23.81,23.81,0,0,1,50,38.44a.39.39,0,0,0,.33,0,13.83,13.83,0,0,1,18.42,3.17A13.09,13.09,0,0,1,71.5,52.26a13.71,13.71,0,0,1-3.33,7A13.42,13.42,0,0,1,55.88,63.8,13.06,13.06,0,0,1,48.16,60q-4.11-4.16-8.26-8.29a2.16,2.16,0,0,0-1.3-.73,2.08,2.08,0,0,0-2.16,1.18,1.9,1.9,0,0,0,.46,2.33c3.07,3,6.11,6.05,9.18,9.07a14.26,14.26,0,0,0,1.68,1.43,16.07,16.07,0,0,0,7.5,2.89,18.29,18.29,0,0,0,6.39-.25,18,18,0,0,0,13.78-21,17.3,17.3,0,0,0-4.05-8.31A17.62,17.62,0,0,0,56.19,32.2a16.85,16.85,0,0,0-6.6,1.94,17.32,17.32,0,0,0-3.14,2.09M45,67.92l-.25-.23c-1.25-1.18-2.51-2.36-3.75-3.56a1,1,0,0,0-.81-.34,15.24,15.24,0,0,1-3.75-.24A10.5,10.5,0,0,1,40.58,43a10.17,10.17,0,0,1,5.69,3c1.92,2,3.9,3.91,5.84,5.87a1.75,1.75,0,0,0,1.57.57,2,2,0,0,0,1.71-1.27A1.86,1.86,0,0,0,55,49c-2-2.07-4-4.19-6.15-6.17a13.94,13.94,0,0,0-14.34-3.35,14.56,14.56,0,0,0,4.43,28.43h5.75l.33,0"/></svg>