<svg id="Layer_1" data-name="Layer 1" xmlns="http://www.w3.org/2000/svg" viewBox="0 0 100 100"><defs><style>.cls-1{fill:#59576d;}</style></defs><path class="cls-1" d="M72.42,24.28H25.28a5.55,5.55,0,0,0-5.55,5.54V63.1a5.56,5.56,0,0,0,5.55,5.55H43.05l-.92,5.55H37.76a1.39,1.39,0,1,0,0,2.77H59.94a1.39,1.39,0,1,0,0-2.77H55.57l-.93-5.55H72.42A5.56,5.56,0,0,0,78,63.1V29.82A5.55,5.55,0,0,0,72.42,24.28ZM44.94,74.2l.92-5.55h6l.93,5.55ZM75.19,63.1a2.78,2.78,0,0,1-2.77,2.78H25.28A2.79,2.79,0,0,1,22.5,63.1V60.33H75.19Zm0-5.54H22.5V29.82a2.78,2.78,0,0,1,2.78-2.77H72.42a2.77,2.77,0,0,1,2.77,2.77ZM48.85,64.49a1.44,1.44,0,0,0,1-.4,1.49,1.49,0,0,0,.41-1,1.39,1.39,0,1,0-2.78,0,1.37,1.37,0,0,0,1.39,1.39ZM62.48,31.83a1.44,1.44,0,0,0-2.31,0l-5.54,8.32a1.37,1.37,0,0,0-.23.77V52a1.39,1.39,0,1,0,2.77,0V43.69h2.77V52a1.39,1.39,0,1,0,2.78,0V43.69h2.77V52a1.39,1.39,0,1,0,2.77,0V40.92a1.37,1.37,0,0,0-.23-.77Zm-5,9.09,2.77-4.16h2.22l2.77,4.16ZM47.46,34H30.82a1.39,1.39,0,0,0,0,2.78H47.46a1.39,1.39,0,0,0,0-2.78Zm0,6.94H30.82a1.39,1.39,0,0,0,0,2.77H47.46a1.39,1.39,0,1,0,0-2.77Zm-6.93,6.93H30.82a1.39,1.39,0,0,0,0,2.77h9.71a1.39,1.39,0,1,0,0-2.77Z"/></svg>