<svg id="Layer_1" data-name="Layer 1" xmlns="http://www.w3.org/2000/svg" viewBox="0 0 100 100"><defs><style>.cls-1{fill:#59576d;}</style></defs><path d="M22,69.47v1.26l1.55-1.26Zm54.31,0,1.55,1.26V69.47Z"/><path class="cls-1" d="M77.88,24.35H22a6.44,6.44,0,0,0-6.44,6.44V69.47A6.44,6.44,0,0,0,22,75.91H77.88a6.44,6.44,0,0,0,6.45-6.44V30.79A6.44,6.44,0,0,0,77.88,24.35ZM22,44.54c2.64,2.1,6.21,4.92,11.36,9-5.15,4-8.72,6.86-11.36,9Zm1.55,24.93c2.9-2.33,7.28-5.81,15-11.83,3,2.43,7,5.4,11.41,5.38s8.41-2.93,11.41-5.38c7.69,6,12.07,9.5,15,11.83Zm54.31-7c-2.63-2.1-6.21-4.92-11.36-9,5.15-4,8.73-6.86,11.36-9Zm0-26.19C75,38.59,70.56,42.15,61.36,49.36l-1.55,1.21c-.91.72-2.19,1.85-3.59,2.93-2.07,1.6-4.41,3.1-6.27,3.08s-4.19-1.48-6.26-3.08h0c-1.4-1.09-2.67-2.21-3.59-2.93l-1.55-1.21C29.34,42.15,24.87,38.59,22,36.27V30.79H77.88Z"/></svg>