<?xml version="1.0" encoding="UTF-8"?>
<svg id="Layer_1" xmlns="http://www.w3.org/2000/svg" viewBox="0 0 124 124">
  <path d="M120.7,7.8c-1.84-3.44-5.48-5.8-9.66-5.8H12.96c-3.74,0-7.04,1.88-9.02,4.76-1.22,1.76-1.94,3.92-1.94,6.22v98.04c0,2.08.6,4.06,1.62,5.72,1.92,3.16,5.38,5.26,9.34,5.26h98.08c3.96,0,7.44-2.12,9.36-5.28,1.02-1.66,1.6-3.62,1.6-5.7V12.98c0-1.86-.48-3.62-1.3-5.18ZM18.84,12h86.34c2.56,0,4.78,1.4,5.95,3.47.41.73.25,1.66-.34,2.25l-43.12,43.12c-.6.58-1.28,1.04-2,1.38-2.06.94-4.52.8-6.46-.46-.42-.26-.82-.56-1.18-.92l-6.32-6.32L13.94,16.76c-.74-.74-.74-1.95,0-2.7,1.24-1.27,2.98-2.06,4.91-2.06ZM15.25,32.21l28.02,28.02c.74.74.74,1.95,0,2.69l-28.02,28.02c-1.2,1.2-3.25.35-3.25-1.35v-56.04c0-1.7,2.05-2.55,3.25-1.35ZM105.18,112H18.84c-2.28,0-4.29-1.11-5.53-2.82-.53-.73-.38-1.75.25-2.38l36.79-36.79c.74-.74,1.95-.74,2.69,0l2.03,2.03c4.29,4.29,11.23,4.29,15.52,0l1.21-1.21c.74-.74,1.95-.74,2.69,0l35.95,35.95c.63.63.78,1.65.26,2.38-1.24,1.72-3.25,2.84-5.53,2.84ZM108.75,90.93l-27.16-27.16c-.74-.74-.74-1.95,0-2.69l27.16-27.16c1.2-1.2,3.25-.35,3.25,1.35v54.32c0,1.7-2.05,2.55-3.25,1.35Z"/>
</svg>