<svg id="Layer_1" data-name="Layer 1" xmlns="http://www.w3.org/2000/svg" viewBox="0 0 75 75"><defs><style>.cls-1{fill:#59576d;fill-rule:evenodd;}</style></defs><path class="cls-1" d="M42.18,49c5.82-.69,12-2.8,12-12.85a10.07,10.07,0,0,0-2.64-7,9.46,9.46,0,0,0-.32-6.88s-2.11-.68-7.08,2.65a25.75,25.75,0,0,0-6.61-.95,25,25,0,0,0-6.61.95c-5-3.33-7.14-2.65-7.14-2.65a9.46,9.46,0,0,0-.32,6.88,10.07,10.07,0,0,0-2.64,7c0,10,6.18,12.16,12,12.85a5.82,5.82,0,0,0-1.69,3.54c-1.48.64-5.34,1.85-7.67-2.17a5.41,5.41,0,0,0-4-2.64s-2.59,0-.21,1.58c0,0,1.75.8,2.91,3.81,0,0,1.59,5,8.88,3.44V61c0,.69-.52,1.49-1.85,1.27a26.1,26.1,0,1,1,16.56,0c-1.33.27-1.85-.52-1.85-1.27V53.76c0-2.43-.8-4-1.75-4.81ZM67.35,37.53A29.85,29.85,0,1,0,37.53,67.35,29.87,29.87,0,0,0,67.35,37.53Z"/></svg>