<svg id="Layer_1" data-name="Layer 1" xmlns="http://www.w3.org/2000/svg" viewBox="0 0 100 100"><defs><style>.cls-1{fill:#59576d;fill-rule:evenodd;}</style></defs><path class="cls-1" d="M55.3,63c6.58-.78,13.58-3.17,13.58-14.55a11.44,11.44,0,0,0-3-7.9,10.64,10.64,0,0,0-.36-7.78s-2.39-.77-8,3A28.89,28.89,0,0,0,50,34.65a28.17,28.17,0,0,0-7.48,1.08c-5.69-3.77-8.08-3-8.08-3a10.64,10.64,0,0,0-.36,7.78,11.4,11.4,0,0,0-3,7.9c0,11.38,7,13.77,13.58,14.55a6.67,6.67,0,0,0-1.91,4c-1.68.71-6,2.09-8.68-2.46a6.11,6.11,0,0,0-4.49-3s-2.93-.06-.24,1.79c0,0,2,.9,3.29,4.31,0,0,1.8,5.69,10.06,3.89V76.6c0,.78-.6,1.68-2.1,1.44a29.54,29.54,0,1,1,18.74,0c-1.5.3-2.1-.6-2.1-1.44V68.4c0-2.75-.9-4.54-2-5.44ZM83.78,50A33.78,33.78,0,1,0,50,83.78,33.8,33.8,0,0,0,83.78,50Z"/></svg>