<svg id="Layer_1" data-name="Layer 1" xmlns="http://www.w3.org/2000/svg" viewBox="0 0 100 100"><defs><style>.cls-1{fill:#59576d;fill-rule:evenodd;}</style></defs><path class="cls-1" d="M53.05,60.6c5.82-.69,12-2.81,12-12.85a10.1,10.1,0,0,0-2.65-7,9.38,9.38,0,0,0-.32-6.87S60,33.2,55,36.53a25.68,25.68,0,0,0-6.61-1,25,25,0,0,0-6.61,1c-5-3.33-7.14-2.64-7.14-2.64a9.43,9.43,0,0,0-.32,6.87,10.09,10.09,0,0,0-2.64,7c0,10,6.19,12.16,12,12.85A5.82,5.82,0,0,0,42,64.14c-1.48.63-5.34,1.85-7.67-2.17a5.38,5.38,0,0,0-4-2.64s-2.59-.06-.21,1.58c0,0,1.74.8,2.9,3.81,0,0,1.59,5,8.89,3.44v4.49c0,.69-.53,1.48-1.85,1.27a26.1,26.1,0,1,1,16.55,0c-1.32.27-1.85-.53-1.85-1.27V65.41c0-2.44-.8-4-1.75-4.81ZM78.22,49.17A29.85,29.85,0,1,0,48.4,79,29.86,29.86,0,0,0,78.22,49.17Z"/></svg>