<?xml version="1.0" encoding="UTF-8"?>
<svg id="Layer_1" xmlns="http://www.w3.org/2000/svg" viewBox="0 0 124 124">
  <path d="M111.02,2H12.96C6.9,2,2,6.92,2,12.98v98.04c0,6.06,4.9,10.98,10.96,10.98h98.06c6.06,0,10.98-4.92,10.98-10.98V12.98c0-6.06-4.92-10.98-10.98-10.98ZM105.17,112H18.83c-3.77,0-6.83-3.06-6.83-6.83V18.83c0-3.77,3.06-6.83,6.83-6.83h86.34c3.77,0,6.83,3.06,6.83,6.83v86.34c0,3.77-3.06,6.83-6.83,6.83Z"/>
  <path d="M36.18,55.33c0-7.01,1.42-9.42,6.69-13.7,5.15-4.27,7.56-5.92,14.9-5.92h8.33c7.34,0,9.75,1.64,14.9,5.92,5.26,4.27,6.69,6.68,6.69,13.7v19.84c0,6.9-1.75,9.53-7.23,14.14-5.48,4.6-7.67,5.48-14.36,5.48h-8.33c-6.68,0-8.88-.88-14.36-5.48s-7.23-7.23-7.23-14.14v-19.84ZM46.7,75.16c0,2.19.77,3.62,3.84,6.25,2.3,1.97,3.95,2.85,7.23,2.85h8.33c3.29,0,4.93-.88,7.23-2.85,3.07-2.63,3.83-4.05,3.83-6.25v-19.84c0-2.19-.77-3.62-3.83-6.25-2.3-1.97-3.95-2.85-7.23-2.85h-8.33c-3.29,0-4.93.88-7.23,2.85-3.07,2.63-3.84,4.05-3.84,6.25v19.84Z"/>
  <path d="M87.69,23.73c0-3.26,1.82-4.32,4.32-4.32h5.28c2.5,0,4.32,1.06,4.32,4.32v4.42c0,3.26-1.82,4.32-4.32,4.32h-5.28c-2.5,0-4.32-1.06-4.32-4.32v-4.42Z"/>
</svg>