<svg id="Layer_1" data-name="Layer 1" xmlns="http://www.w3.org/2000/svg" viewBox="0 0 100 100"><defs><style>.cls-1{fill:#59576d;}</style></defs><path class="cls-1" d="M25,25V75H75V25ZM52.21,64c0,4.86-2.86,7.08-7,7.08a7.29,7.29,0,0,1-7-4.29L42,64.48c.74,1.3,1.41,2.41,3,2.41s2.52-.61,2.52-3V48h4.7V64Zm11.12,7.08c-4.37,0-7.19-2.07-8.56-4.8l3.82-2.21a5.15,5.15,0,0,0,4.64,2.86c1.94,0,3.19-1,3.19-2.32,0-1.61-1.27-2.18-3.43-3.13L61.82,61c-3.39-1.44-5.64-3.26-5.64-7.08,0-3.53,2.69-6.21,6.88-6.21a6.92,6.92,0,0,1,6.67,3.76l-3.66,2.34a3.18,3.18,0,0,0-3-2,2,2,0,0,0-2.25,2c0,1.41.87,2,2.89,2.86l1.18.5c4,1.71,6.23,3.46,6.23,7.39,0,4.22-3.32,6.54-7.77,6.54Z"/></svg>