<svg id="Layer_1" data-name="Layer 1" xmlns="http://www.w3.org/2000/svg" viewBox="0 0 100 100"><defs><style>.cls-1{fill:#59576d;}</style></defs><path class="cls-1" d="M22.74,29.43c-5.68,8.14-5,18.74-.64,27.39.1.21.21.41.32.61s.13.27.2.4l.13.22.22.41.41.7.24.39c.15.25.33.5.48.75s.13.21.21.32c.26.4.53.8.83,1.18a10.34,10.34,0,0,0,.64.84c.07.11.15.21.22.31l.59.72c.08.08.15.18.23.26.26.32.54.62.81.93,0,0,0,0,0,0a8.4,8.4,0,0,0,1.13,1.18c.21.22.43.44.65.65l.27.26.91.82h0l.15.13c.28.24.55.48.83.7l.34.28c.22.18.46.35.69.53l.36.28c.25.19.52.37.77.55l.28.2.08.06.75.49.32.22,1.17.72.33.18c.29.17.59.34.88.49l.49.25.62.34a.39.39,0,0,1,.15.06l.26.12,1,.47.2.09c.39.17.77.33,1.17.48l.28.11,1.1.41L43,75c.41.14.81.28,1.23.41l.3.08c.42.13.83.28,1.26.37,27.4,5,35.37-16.48,35.37-16.48-6.69,8.71-18.57,11-29.81,8.45-.42-.09-.83-.23-1.25-.35s-1-.31-1.52-.48l-.16-.07c-.37-.12-.72-.26-1.07-.39l-.3-.11-1.15-.49-.23-.1-1-.45-.28-.14-.75-.38-.5-.26-.9-.49c-.1-.07-.2-.12-.3-.18q-.6-.34-1.17-.72L40.45,63c-.28-.18-.56-.36-.83-.55-.1-.06-.18-.13-.28-.2l-.78-.56-.35-.27c-.24-.18-.48-.36-.71-.55l-.32-.26c-.3-.24-.6-.49-.89-.75l-.1-.08L35.26,59,35,58.7,34.33,58l-.26-.26c-.28-.28-.56-.57-.82-.87l0,0c-.29-.31-.56-.62-.84-.94l-.21-.26-.61-.74-.91-1.2c-6.23-8.51-8.49-20.27-3.5-29.91m13.19-1.26c-4.11,5.9-3.88,13.79-.68,20a24.49,24.49,0,0,0,1.81,3,14.08,14.08,0,0,0,2.11,2.63c.29.33.6.64.92,1l.24.24.94.87,0,0c.36.32.73.62,1.1.92l.26.19q.55.43,1.14.84l0,0c.17.12.34.23.53.34a2,2,0,0,0,.24.16c.28.18.56.36.85.53l.12.06c.24.15.51.29.76.42L51,54l.53.28.08,0c.36.18.73.35,1.09.51l.25.1.89.37c.14,0,.26.1.39.14l.83.29.37.12a9.69,9.69,0,0,0,1.2.34c21.15,3.51,26.05-12.78,26.05-12.78-4.41,6.34-12.94,9.37-22,7-.4-.1-.8-.22-1.2-.34l-.36-.12c-.28-.09-.56-.18-.83-.29l-.39-.14c-.3-.12-.6-.23-.89-.36L56.74,49c-.38-.17-.75-.33-1.12-.51l-.55-.29-.32-.16-.7-.4a.56.56,0,0,1-.17-.09c-.28-.17-.58-.35-.85-.53l-.25-.16-.56-.37c-.39-.26-.76-.55-1.14-.83l-.25-.21a25.39,25.39,0,0,1-8.65-12.31,19.1,19.1,0,0,1,1.49-15.33m11.45-.4a12.37,12.37,0,0,0-1,11.9,16.83,16.83,0,0,0,9.63,9l.52.19.24.07a6.29,6.29,0,0,0,.74.22C77,41.06,80.11,32.8,81,31.59c-2.79,4-7.45,4.95-13.18,3.56a11.42,11.42,0,0,1-1.37-.43,15,15,0,0,1-1.65-.67,17.75,17.75,0,0,1-2.89-1.77C56.75,28.4,53.58,21,56.92,15"/></svg>