<?xml version="1.0" encoding="UTF-8"?>
<svg id="Layer_1" xmlns="http://www.w3.org/2000/svg" viewBox="0 0 124 124">
  <path d="M111.02,2H12.96C6.9,2,2,6.92,2,12.98v98.04c0,6.06,4.9,10.98,10.96,10.98h98.06c6.06,0,10.98-4.92,10.98-10.98V12.98c0-6.06-4.92-10.98-10.98-10.98ZM105.17,112H18.83c-3.77,0-6.83-3.06-6.83-6.83V18.83c0-3.77,3.06-6.83,6.83-6.83h86.34c3.77,0,6.83,3.06,6.83,6.83v86.34c0,3.77-3.06,6.83-6.83,6.83Z"/>
  <g>
    <path d="M40.76,87.55h6.28c2.79,0,5.76.61,5.76,4.19s-3.31,4.19-5.76,4.19h-21.28c-2.44,0-5.76-.52-5.76-4.19s2.96-4.19,5.76-4.19h6.63v-30.26h-6.63c-2.44,0-5.76-.52-5.76-4.19s2.96-4.19,5.76-4.19h8.81c4.8,0,6.19.87,6.19,5.84v32.79ZM28.12,32c0-2.97,1.66-3.92,3.92-3.92h4.8c2.27,0,3.92.96,3.92,3.92v4.01c0,2.97-1.66,3.92-3.92,3.92h-4.8c-2.27,0-3.92-.96-3.92-3.92v-4.01Z"/>
    <path d="M71.37,65.84v24.33c0,2.88-.61,5.76-4.19,5.76s-4.19-2.88-4.19-5.76v-35.06c0-3.05.35-6.19,4.19-6.19s4.19,3.14,4.19,6.1v1.13l6.8-4.45c2.18-1.4,4.54-2.79,7.24-2.79h6.19c3.23,0,5.23.87,7.76,3.05,3.75,3.23,3.58,6.8,3.75,11.34l.87,26.34c.09,2.97-.35,6.28-4.1,6.28-3.4,0-4.1-2.88-4.19-5.67l-.87-25.81c-.17-5.14-.61-7.15-5.67-7.15h-2.79c-.87,0-1.74.26-2.62.78l-12.38,7.76Z"/>
  </g>
</svg>