<svg id="Layer_1" data-name="Layer 1" xmlns="http://www.w3.org/2000/svg" viewBox="0 0 100 100"><defs><style>.cls-1{fill:#59576d;}</style></defs><path class="cls-1" d="M41.48,35.6A6.91,6.91,0,0,0,43.19,31a7,7,0,0,0-14,0,6.89,6.89,0,0,0,1.7,4.57,10.73,10.73,0,0,0-6.35,9.73V47H47.81V45.36A10.75,10.75,0,0,0,41.48,35.6Zm-6.32,1.76h2a8,8,0,0,1,7.92,7H27.24A8.06,8.06,0,0,1,35.16,37.36Zm1-10.64A4.33,4.33,0,1,1,31.84,31,4.34,4.34,0,0,1,36.18,26.72Z"/><path class="cls-1" d="M68.1,62.58a7,7,0,1,0-10.56,0,10.73,10.73,0,0,0-6.35,9.73V74H74.48V72.31A10.77,10.77,0,0,0,68.1,62.58Zm-5.31-8.91A4.34,4.34,0,1,1,58.45,58,4.34,4.34,0,0,1,62.79,53.67Zm-1,10.67h2a8,8,0,0,1,7.92,7H53.88A8,8,0,0,1,61.8,64.34Z"/><path class="cls-1" d="M48,64.34H41.34a3.67,3.67,0,0,1-3.66-3.66V53.9l2.73,2.72a1.3,1.3,0,0,0,.93.4,1.34,1.34,0,0,0,.94-2.27l-5-5a1.35,1.35,0,0,0-1.88,0l-5,5a1.32,1.32,0,0,0,1.87,1.87L35,53.87v6.78A6.33,6.33,0,0,0,41.34,67H48a1.32,1.32,0,1,0,0-2.64Z"/><path class="cls-1" d="M68.89,41.42a1.32,1.32,0,0,0-1.87,0l-2.73,2.72V38a6.36,6.36,0,0,0-6.35-6.36H49.66a1.34,1.34,0,1,0,0,2.67H58A3.69,3.69,0,0,1,61.66,38v6.1l-2.73-2.72a1.32,1.32,0,0,0-1.87,0,1.33,1.33,0,0,0,0,1.87l5,5a1.3,1.3,0,0,0,1.88,0l5-5A1.31,1.31,0,0,0,68.89,41.42Z"/></svg>