<svg id="Layer_1" data-name="Layer 1" xmlns="http://www.w3.org/2000/svg" viewBox="0 0 75 75"><defs><style>.cls-1{fill:#59576d;}</style></defs><circle class="cls-1" cx="37.5" cy="37.5" r="5.94"/><path class="cls-1" d="M37.51,51.05c-8.34,0-15.63-1-21.09-2.85a27,27,0,0,1-8.69-4.65c-2.27-1.94-3.48-4.06-3.48-6.11,0-3.93,4.31-7.78,11.54-10.28A68.43,68.43,0,0,1,37.5,24,67.64,67.64,0,0,1,58.92,27.1a27.23,27.23,0,0,1,8.41,4.42c2.23,1.87,3.42,3.92,3.42,5.92,0,4.08-4.82,8.21-12.58,10.78C52.67,50.05,45.34,51.05,37.51,51.05Zm0-24.26a66.4,66.4,0,0,0-20.77,3c-6.65,2.32-9.63,5.49-9.63,7.61s3.2,5.67,10.23,8.07c5.16,1.77,12.15,2.7,20.17,2.7,7.53,0,14.55-1,19.77-2.69,7.3-2.42,10.64-5.89,10.64-8.08,0-1.12-.85-2.45-2.4-3.74A24.56,24.56,0,0,0,58,29.77,65.46,65.46,0,0,0,37.51,26.79Z"/><path class="cls-1" d="M24,67.07a6.24,6.24,0,0,1-3.17-.79c-3.4-2-4.58-7.62-3.15-15.13a68.38,68.38,0,0,1,8.07-20.41,68.2,68.2,0,0,1,13.43-17,26.89,26.89,0,0,1,8-5.07c2.74-1,5.1-1,6.83,0,3.54,2,4.71,8.28,3.05,16.29a68.33,68.33,0,0,1-7.87,19.31c-4.16,7.22-8.66,13-13,16.84a26.84,26.84,0,0,1-8.37,5.2A11.52,11.52,0,0,1,24,67.07Zm3-35.62,1.23.71c-3.82,6.63-6.65,13.74-7.74,19.52-1.31,6.92,0,11.09,1.78,12.14a3.5,3.5,0,0,0,1.76.4c2.36,0,6.06-1.49,10.35-5.23,4.1-3.58,8.4-9.17,12.41-16.12a65.29,65.29,0,0,0,7.55-18.46c1.55-7.54.22-12.16-1.69-13.26-1-.55-2.54-.48-4.44.22a24,24,0,0,0-7.15,4.54A65.3,65.3,0,0,0,28.24,32.17Z"/><path class="cls-1" d="M50.94,67.05c-3.21,0-7.3-1.94-11.56-5.61A68.19,68.19,0,0,1,25.73,44.26h0a68.27,68.27,0,0,1-8-20.12,27.11,27.11,0,0,1-.38-9.49c.5-2.88,1.67-4.93,3.41-5.93,3.53-2.05,9.53,0,15.64,5.49,4.33,3.84,8.87,9.69,12.79,16.46,4.18,7.22,7,14,8.1,19.68a27.09,27.09,0,0,1,.33,9.85c-.55,2.95-1.78,5-3.55,6.07A6.1,6.1,0,0,1,50.94,67.05ZM28.2,42.84a66,66,0,0,0,13,16.45c5.34,4.59,9.57,5.59,11.41,4.52s3.3-5.61,1.86-12.9c-1.07-5.35-3.75-11.86-7.78-18.81A65.2,65.2,0,0,0,34.5,16.34c-5.75-5.12-10.41-6.26-12.32-5.16-1,.55-1.69,2-2,4a24.4,24.4,0,0,0,.36,8.46A65.23,65.23,0,0,0,28.2,42.84Z"/></svg>