<svg id="Layer_1" data-name="Layer 1" xmlns="http://www.w3.org/2000/svg" viewBox="0 0 100 100"><defs><style>.cls-1{fill:#59576d;}</style></defs><path class="cls-1" d="M49.52,54.62a1.14,1.14,0,0,1-1.16,1.15,1.24,1.24,0,0,1-.83-.33,1.21,1.21,0,0,1-.34-.82,1.26,1.26,0,0,1,.34-.83,1.17,1.17,0,0,1,.83-.32,1.15,1.15,0,0,1,.82.32A1.26,1.26,0,0,1,49.52,54.62Z"/><path class="cls-1" d="M72.73,26.76v6.72H70.41V26.76a2.31,2.31,0,0,0-2.32-2.31H28.63a2.32,2.32,0,0,0-2.33,2.31V50H50.09v2.32H26.3v2.33a2.33,2.33,0,0,0,2.33,2.32H50.09v2.32H45.86l-.77,4.64h5v2.32h-11a1.16,1.16,0,1,1,0-2.32h3.65l.77-4.64H28.63A4.64,4.64,0,0,1,24,54.62V26.76a4.64,4.64,0,0,1,4.64-4.64H68.09A4.64,4.64,0,0,1,72.73,26.76Z"/><path class="cls-1" d="M68.14,38.23H59.61a1,1,0,0,0,0,2.1h8.53a1.05,1.05,0,0,0,0-2.1Z"/><path class="cls-1" d="M64.73,72.38H63a1,1,0,1,0,0,2.09h1.71a1,1,0,0,0,0-2.09Z"/><path class="cls-1" d="M71.55,34.82H56.19a4.46,4.46,0,0,0-4.46,4.46V73.42a4.46,4.46,0,0,0,4.46,4.46H71.55A4.46,4.46,0,0,0,76,73.42V39.28A4.46,4.46,0,0,0,71.55,34.82Zm0,41H56.19a2.38,2.38,0,0,1-2.37-2.37V39.28a2.38,2.38,0,0,1,2.37-2.37H71.55a2.37,2.37,0,0,1,2.37,2.37V73.42A2.37,2.37,0,0,1,71.55,75.79Z"/></svg>