<svg id="Layer_1" data-name="Layer 1" xmlns="http://www.w3.org/2000/svg" viewBox="0 0 75 75"><defs><style>.cls-1{fill:#59576d;}</style></defs><path class="cls-1" d="M37,42.12a1.14,1.14,0,0,1-1.16,1.15,1.24,1.24,0,0,1-.83-.33,1.21,1.21,0,0,1-.34-.82,1.26,1.26,0,0,1,.34-.83,1.17,1.17,0,0,1,.83-.32,1.15,1.15,0,0,1,.82.32A1.26,1.26,0,0,1,37,42.12Z"/><path class="cls-1" d="M60.23,14.26V21H57.91V14.26A2.31,2.31,0,0,0,55.59,12H16.13a2.32,2.32,0,0,0-2.33,2.31V37.47H37.59v2.32H13.8v2.33a2.33,2.33,0,0,0,2.33,2.32H37.59v2.32H33.36l-.77,4.64h5v2.32h-11a1.16,1.16,0,1,1,0-2.32h3.65L31,46.76H16.13a4.64,4.64,0,0,1-4.64-4.64V14.26a4.64,4.64,0,0,1,4.64-4.64H55.59A4.64,4.64,0,0,1,60.23,14.26Z"/><path class="cls-1" d="M55.64,25.73H47.11a1,1,0,0,0,0,2.1h8.53a1.05,1.05,0,0,0,0-2.1Z"/><path class="cls-1" d="M52.23,59.88H50.52a1,1,0,1,0,0,2.09h1.71a1,1,0,0,0,0-2.09Z"/><path class="cls-1" d="M59.05,22.32H43.69a4.46,4.46,0,0,0-4.46,4.46V60.92a4.46,4.46,0,0,0,4.46,4.46H59.05a4.46,4.46,0,0,0,4.46-4.46V26.78A4.46,4.46,0,0,0,59.05,22.32Zm0,41H43.69a2.38,2.38,0,0,1-2.37-2.37V26.78a2.38,2.38,0,0,1,2.37-2.37H59.05a2.37,2.37,0,0,1,2.37,2.37V60.92A2.37,2.37,0,0,1,59.05,63.29Z"/></svg>