<svg id="Layer_1" data-name="Layer 1" xmlns="http://www.w3.org/2000/svg" viewBox="0 0 100 100"><defs><style>.cls-1{fill:#59576d;}</style></defs><path class="cls-1" d="M50.24,61.73a1.38,1.38,0,0,1-1.39,1.38,1.48,1.48,0,0,1-1-.4,1.44,1.44,0,0,1-.4-1,1.48,1.48,0,0,1,.4-1,1.4,1.4,0,0,1,1-.38,1.37,1.37,0,0,1,1,.38A1.49,1.49,0,0,1,50.24,61.73Z"/><path class="cls-1" d="M78,28.45v8H75.2v-8a2.78,2.78,0,0,0-2.78-2.77H25.28a2.78,2.78,0,0,0-2.78,2.77V56.18H50.92V59H22.5v2.78a2.78,2.78,0,0,0,2.78,2.77H50.92v2.77H45.86l-.92,5.55h6v2.77H37.76a1.39,1.39,0,1,1,0-2.77h4.37l.92-5.55H25.28a5.55,5.55,0,0,1-5.55-5.54V28.45a5.56,5.56,0,0,1,5.55-5.55H72.42A5.56,5.56,0,0,1,78,28.45Z"/><path class="cls-1" d="M72.49,42.16H62.29a1.25,1.25,0,1,0,0,2.49h10.2a1.25,1.25,0,0,0,0-2.49Z"/><path class="cls-1" d="M68.41,83h-2a1.25,1.25,0,0,0,0,2.5h2a1.25,1.25,0,0,0,0-2.5Z"/><path class="cls-1" d="M76.56,38.08H58.21a5.33,5.33,0,0,0-5.33,5.32V84.2a5.33,5.33,0,0,0,5.33,5.32H76.56a5.33,5.33,0,0,0,5.33-5.32V43.4A5.33,5.33,0,0,0,76.56,38.08Zm0,49H58.21a2.83,2.83,0,0,1-2.83-2.83V43.4a2.83,2.83,0,0,1,2.83-2.83H76.56A2.84,2.84,0,0,1,79.4,43.4V84.2A2.84,2.84,0,0,1,76.56,87Z"/></svg>