<svg id="Layer_1" data-name="Layer 1" xmlns="http://www.w3.org/2000/svg" viewBox="0 0 100 100"><defs><style>.cls-1{fill:#59576d;}</style></defs><path class="cls-1" d="M84.62,70.24V65.43l-4.1-1.34a11.54,11.54,0,0,0-1.06-2.61l2-3.89L78.05,54.2l-3.88,2a17.09,17.09,0,0,0-2.62-1.06L70.21,51h-4.8l-1.34,4.1a12.09,12.09,0,0,0-2.62,1.06l-3.88-2-3.39,3.39,2,3.89a18,18,0,0,0-1.06,2.61L51,65.43v4.81l4.09,1.34a12.32,12.32,0,0,0,1.06,2.61l-2,3.89,3.39,3.39,3.88-2a17.09,17.09,0,0,0,2.62,1.06l1.34,4.1h4.8l1.34-4.1a12.09,12.09,0,0,0,2.62-1.06l3.88,2,3.39-3.39-2-3.89a15.68,15.68,0,0,0,1.06-2.61ZM67.81,75.82a8,8,0,1,1,8-8A8,8,0,0,1,67.81,75.82Z"/><polygon class="cls-1" points="65.18 48.67 70.27 48.67 74.59 44.35 57.3 27.07 54.76 29.62 69.5 44.35 65.18 48.67"/><polygon class="cls-1" points="35.54 27.07 18.25 44.35 35.54 61.64 38.09 59.09 23.35 44.35 38.09 29.62 35.54 27.07"/></svg>