<svg id="Layer_1" data-name="Layer 1" xmlns="http://www.w3.org/2000/svg" viewBox="0 0 75 75"><defs><style>.cls-1{fill:#59576d;}</style></defs><g id="_288-sass" data-name="288-sass"><path class="cls-1" d="M62.51,41.39a14.15,14.15,0,0,0-6.28,1.46,13.48,13.48,0,0,1-1.41-3.26,8.48,8.48,0,0,1-.11-2.74,22.17,22.17,0,0,1,.82-2.94c0-.12-.15-.72-1.55-.73s-2.6.27-2.74.64a13.17,13.17,0,0,0-.57,2.07c-.25,1.26-2.8,5.79-4.24,8.15a8.67,8.67,0,0,1-1-2.38,8.75,8.75,0,0,1-.12-2.74,24.86,24.86,0,0,1,.82-3c0-.12-.15-.71-1.54-.72s-2.6.27-2.74.64-.29,1.23-.58,2.06-3.67,8.37-4.55,10.33c-.46,1-.85,1.8-1.13,2.34a.88.88,0,0,1-.1.18s.06-.1.06-.08l-.38.72h0c-.19.35-.39.66-.49.66a4.66,4.66,0,0,1,0-2.15c.51-2.62,1.71-6.69,1.7-6.83s.23-.78-.79-1.16a1.28,1.28,0,0,0-1.43.24c-.08,0-.15.22-.15.22s1.1-4.59-2.1-4.59c-2,0-4.76,2.18-6.12,4.16L21.2,44.55,19,45.78l-.15-.16C14.93,41.48,7.78,38.56,8.08,33c.11-2,.81-7.34,13.76-13.79,10.61-5.29,19.1-3.84,20.56-.61,2.1,4.6-4.54,13.16-15.56,14.4-4.2.46-6.41-1.16-7-1.77s-.66-.67-.88-.55-.13.76,0,1.09a6.54,6.54,0,0,0,4,3.13c2,.66,7,1,12.9-1.28,6.69-2.57,11.9-9.75,10.37-15.76S34.58,9.77,25,13.16c-5.7,2-11.87,5.21-16.31,9.36-5.27,4.93-6.12,9.23-5.77,11,1.23,6.37,10,10.53,13.54,13.61l-.49.27c-1.76.87-8.46,4.38-10.14,8.08-1.89,4.2.31,7.21,1.76,7.62,4.53,1.26,9.16-1,11.65-4.72s2.19-8.56,1-10.77l0-.08,1.38-.82c.9-.53,1.78-1,2.55-1.44a16.5,16.5,0,0,0-.91,4.62c-.2,2.38.79,5.46,2.07,6.67a2.23,2.23,0,0,0,1.66.55c1.5,0,2.17-1.24,2.91-2.71.92-1.8,1.74-3.89,1.74-3.89s-1,5.65,1.76,5.65c1,0,2-1.31,2.49-2h0l.08-.13.16-.26v0c.41-.7,1.31-2.31,2.66-5,1.76-3.44,3.43-7.74,3.43-7.74a21.76,21.76,0,0,0,.67,2.8,27.41,27.41,0,0,0,1.46,3.24c-.42.57-.67.89-.67.89s0,0,0,0c-.33.44-.7.9-1.08,1.36a36.21,36.21,0,0,0-3.24,4.07,1.1,1.1,0,0,0,.3,1.48,2.68,2.68,0,0,0,1.7.27,7.42,7.42,0,0,0,2.54-.59,8.7,8.7,0,0,0,2.19-1.14,4.9,4.9,0,0,0,2.1-4.31,8.88,8.88,0,0,0-.79-3.05l.37-.54A58.32,58.32,0,0,0,51.59,39a21.45,21.45,0,0,0,.67,2.79,19.93,19.93,0,0,0,1.23,2.78,11.89,11.89,0,0,0-3.69,4.77c-.8,2.31-.17,3.35,1,3.59a3.59,3.59,0,0,0,1.85-.38A8.83,8.83,0,0,0,55,51.37c1.35-1,2.66-2.4,2.57-4.29A8,8,0,0,0,57,44.55a13.1,13.1,0,0,1,6.72-.78c6,.7,7.21,4.47,7,6a3.94,3.94,0,0,1-1.91,2.7c-.43.26-.55.36-.52.56s.25.27.6.2a4.7,4.7,0,0,0,3.28-4.19c.18-3.68-3.36-7.73-9.63-7.69ZM16,57.05c-2,2.18-4.79,3-6,2.31s-.78-4,1.68-6.27a31.51,31.51,0,0,1,4.7-3.51l1.23-.75.13-.07c.1-.07.21-.12.32-.19A8.66,8.66,0,0,1,16,57.05Zm14.55-9.89c-.7,1.69-2.16,6-3,5.8s-1.23-3.5-.16-6.75a15,15,0,0,1,2.37-4.34c1.1-1.22,2.3-1.61,2.58-1.12S31,46.09,30.59,47.16Zm12,5.73c-.29.15-.56.25-.69.18s.12-.26.12-.26,1.5-1.62,2.1-2.35c.35-.44.75-.94,1.18-1.51,0,.06,0,.11,0,.18C45.31,51.06,43.45,52.37,42.6,52.89Zm9.27-2.11c-.22-.15-.19-.66.54-2.24a8.27,8.27,0,0,1,2.06-2.65,3.89,3.89,0,0,1,.2,1.17,3.81,3.81,0,0,1-2.8,3.72Z"/></g></svg>