<svg id="Layer_1" data-name="Layer 1" xmlns="http://www.w3.org/2000/svg" viewBox="0 0 100 100"><defs><style>.cls-1{fill:#59576d;}</style></defs><g id="_288-sass" data-name="288-sass"><path class="cls-1" d="M78,55.25a14.19,14.19,0,0,0-6.28,1.46,13,13,0,0,1-1.4-3.26,8.46,8.46,0,0,1-.12-2.74A22.17,22.17,0,0,1,71,47.77c0-.12-.15-.72-1.55-.73s-2.6.27-2.74.64a13.17,13.17,0,0,0-.57,2.07c-.25,1.26-2.79,5.79-4.23,8.15a8.43,8.43,0,0,1-1-2.38,8.75,8.75,0,0,1-.12-2.74,22.44,22.44,0,0,1,.83-3c0-.12-.16-.71-1.55-.72s-2.6.27-2.74.64-.29,1.23-.57,2.06-3.67,8.37-4.56,10.33c-.46,1-.85,1.8-1.13,2.34a.88.88,0,0,1-.1.18s.06-.1.06-.08l-.38.72h0c-.18.35-.39.66-.49.66a4.59,4.59,0,0,1,0-2.15c.5-2.62,1.71-6.69,1.7-6.83s.22-.78-.8-1.16a1.25,1.25,0,0,0-1.42.24c-.09,0-.16.22-.16.22s1.1-4.59-2.1-4.59c-2,0-4.76,2.18-6.12,4.16l-4.66,2.55-2.24,1.23-.15-.16c-3.88-4.14-11-7.06-10.73-12.61.11-2,.81-7.34,13.76-13.79,10.61-5.29,19.1-3.84,20.56-.61,2.1,4.6-4.54,13.16-15.56,14.4-4.2.46-6.41-1.16-7-1.77s-.66-.67-.87-.55-.13.76,0,1.09a6.48,6.48,0,0,0,4,3.13c2,.66,7,1,12.9-1.27,6.69-2.58,11.9-9.76,10.37-15.77S50,23.63,40.45,27c-5.7,2-11.87,5.2-16.31,9.35-5.27,4.93-6.12,9.23-5.77,11,1.23,6.37,10,10.53,13.54,13.61l-.49.27c-1.76.87-8.46,4.38-10.14,8.08-1.89,4.2.31,7.21,1.77,7.62,4.52,1.26,9.15-1,11.64-4.72s2.19-8.56,1-10.77c0,0,0,0,0-.08l1.38-.82c.9-.53,1.78-1,2.55-1.44a16.87,16.87,0,0,0-.91,4.62c-.2,2.38.79,5.46,2.07,6.68a2.26,2.26,0,0,0,1.66.54c1.5,0,2.17-1.24,2.92-2.71.92-1.8,1.73-3.89,1.73-3.89s-1,5.65,1.76,5.65c1,0,2-1.31,2.49-2h0l.08-.13a2.45,2.45,0,0,0,.16-.26v0c.41-.7,1.31-2.31,2.66-5,1.76-3.44,3.43-7.74,3.43-7.74a23.25,23.25,0,0,0,.68,2.8A25.76,25.76,0,0,0,59.8,61c-.41.57-.66.89-.66.89a0,0,0,0,0,0,0c-.33.44-.7.9-1.07,1.36a36.39,36.39,0,0,0-3.25,4.07,1.1,1.1,0,0,0,.3,1.48,2.68,2.68,0,0,0,1.7.27,7.36,7.36,0,0,0,2.54-.59,8.54,8.54,0,0,0,2.19-1.14A4.9,4.9,0,0,0,63.66,63,8.88,8.88,0,0,0,62.87,60l.37-.54A58.32,58.32,0,0,0,67,52.88a21.45,21.45,0,0,0,.67,2.79,19.43,19.43,0,0,0,1.23,2.78,12,12,0,0,0-3.69,4.77c-.8,2.31-.17,3.35,1,3.59a3.59,3.59,0,0,0,1.85-.38,8.83,8.83,0,0,0,2.34-1.2c1.35-1,2.66-2.4,2.57-4.29a8,8,0,0,0-.58-2.53,13.1,13.1,0,0,1,6.72-.78c6,.7,7.21,4.47,7,6a3.94,3.94,0,0,1-1.91,2.7c-.42.26-.55.36-.52.56s.25.27.61.2a4.69,4.69,0,0,0,3.27-4.19c.18-3.68-3.36-7.73-9.63-7.69ZM31.49,70.91c-2,2.18-4.79,3-6,2.31s-.78-4,1.68-6.27a31.51,31.51,0,0,1,4.7-3.51l1.23-.75.13-.07c.1-.07.21-.12.32-.19a8.64,8.64,0,0,1-2.07,8.48ZM46,61c-.69,1.7-2.16,6-3,5.8s-1.23-3.5-.16-6.75a15,15,0,0,1,2.38-4.34c1.09-1.22,2.29-1.61,2.57-1.12S46.47,60,46,61Zm12,5.73c-.29.15-.56.25-.69.18s.12-.26.12-.26,1.5-1.62,2.1-2.35c.35-.44.75-.94,1.18-1.51,0,.06,0,.11,0,.18C60.76,64.92,58.9,66.23,58.05,66.75Zm9.27-2.11c-.22-.15-.18-.66.54-2.24a8.38,8.38,0,0,1,2.06-2.65,3.89,3.89,0,0,1,.2,1.17,3.81,3.81,0,0,1-2.8,3.72Z"/></g></svg>