<svg id="Layer_1" data-name="Layer 1" xmlns="http://www.w3.org/2000/svg" viewBox="0 0 100 100"><defs><style>.cls-1{fill:#59576d;}</style></defs><rect class="cls-1" x="41.87" y="48.69" width="32.57" height="4.98" rx="0.77"/><rect class="cls-1" x="41.87" y="31.45" width="32.57" height="4.98" rx="0.77"/><rect class="cls-1" x="41.87" y="65.93" width="32.57" height="4.98" rx="0.77"/><path class="cls-1" d="M27.12,72.64a4.22,4.22,0,1,0-4.28-4.22A4.23,4.23,0,0,0,27.12,72.64Z"/><path class="cls-1" d="M23.46,32.55a.34.34,0,0,0-.25-.11h0a.3.3,0,0,0-.23.1l-1.7,1.69a.35.35,0,0,0,0,.46l.07.07,5.08,5.06a.43.43,0,0,0,.56,0l9.44-9.44a.35.35,0,0,0,0-.49L34.59,28.1a.33.33,0,0,0-.24-.1h0a.3.3,0,0,0-.23.1l-7.54,7.49Z"/><path class="cls-1" d="M36.41,47.08l-1.82-1.83a.38.38,0,0,0-.24-.1h0a.34.34,0,0,0-.23.1l-7.54,7.54-3.12-3a.34.34,0,0,0-.48,0l-1.7,1.69a.33.33,0,0,0,0,.42l.09.1L26.4,57A.43.43,0,0,0,27,57l9.45-9.46A.33.33,0,0,0,36.41,47.08Z"/></svg>