<svg id="Layer_1" data-name="Layer 1" xmlns="http://www.w3.org/2000/svg" viewBox="0 0 100 100"><defs><style>.cls-1{fill:#59576d;}</style></defs><path class="cls-1" d="M37,79a41.4,41.4,0,0,1-22.43-6.57A29.4,29.4,0,0,0,36.2,66.35,14.65,14.65,0,0,1,22.53,56.19a14.79,14.79,0,0,0,6.61-.25A14.66,14.66,0,0,1,17.4,41.4,14.45,14.45,0,0,0,24,43.23,14.65,14.65,0,0,1,19.5,23.69,41.57,41.57,0,0,0,49.67,39,14.64,14.64,0,0,1,74.6,25.64a29.28,29.28,0,0,0,9.29-3.56,14.66,14.66,0,0,1-6.43,8.1,29.19,29.19,0,0,0,8.4-2.3,29.69,29.69,0,0,1-7.3,7.57C79.49,56,64.14,79,37,79"/></svg>