<?xml version="1.0" encoding="utf-8"?>
<!-- Generator: Adobe Illustrator 25.2.1, SVG Export Plug-In . SVG Version: 6.00 Build 0)  -->
<svg version="1.1" id="Layer_1" xmlns="http://www.w3.org/2000/svg" xmlns:xlink="http://www.w3.org/1999/xlink" x="0px" y="0px"
	 viewBox="0 0 282 81.8" style="enable-background:new 0 0 282 81.8;" xml:space="preserve">
<style type="text/css">
	.st0{fill:#D1D3D4;}
	.st1{opacity:0.7;}
	.st2{fill:#12142F;}
</style>
<g>
	<path class="st0" d="M182.8,81.8h-14.1l-16.6-48.3l-16.8,48.3h-14.1L96,7.5h17.4l15.3,49.9l16.6-50h13.9l16.5,50.1L191,7.6h17
		L182.8,81.8z"/>
	<path class="st0" d="M262.8,81.8L247,58.2h-12.7v23.6h-16.2V8.1h33.7c17.4,0,27.8,9.2,27.8,24.3v0.2c0,11.9-6.4,19.4-15.8,22.9
		l18,26.3H262.8z M263.1,33.3c0-7-4.8-10.5-12.7-10.5h-16.1V44h16.4c7.9,0,12.4-4.2,12.4-10.4L263.1,33.3L263.1,33.3z"/>
</g>
<g class="st1">
	<path class="st2" d="M29.5,35.6l-3.2-8h-15l-3.2,8h-8L15.3-0.2h7.2l15.2,35.7L29.5,35.6L29.5,35.6z M18.8,9.2l-4.7,11.5h9.4
		L18.8,9.2z"/>
	<path class="st2" d="M66,35.6L48.8,13v22.5h-7.7V0.1h7.2l16.6,21.8V0.1h7.7v35.5H66z"/>
	<path class="st2" d="M93,35.6H79.2V0.1H93c11.1,0,18.8,7.7,18.8,17.6v0.1C111.8,27.8,104.1,35.6,93,35.6z M103.7,17.8
		c0-6.3-4.3-10.7-10.7-10.7h-6v21.4h6c6.4,0,10.7-4.3,10.7-10.6V17.8z"/>
	<path class="st2" d="M138.3,35.6l-7.6-11.3h-6.1v11.3h-7.8V0.1H133c8.4,0,13.4,4.4,13.4,11.7v0.1c0,5.7-3.1,9.3-7.6,11l8.7,12.7
		C147.5,35.6,138.3,35.6,138.3,35.6z M138.5,12.2c0-3.3-2.3-5.1-6.1-5.1h-7.8v10.2h7.9c3.8,0,6-2,6-5L138.5,12.2L138.5,12.2z"/>
	<path class="st2" d="M151.4,35.6V0.1h26.8V7h-19v7.2h16.7v6.9h-16.7v7.4h19.3v6.9h-27.1V35.6z"/>
	<path class="st2" d="M222.3,35.8h-6.8l-8-23.2l-8,23.2h-6.8L180.6,0.1h8.4l7.3,24l8-24.1h6.7l8,24.1l7.3-24h8.2L222.3,35.8z"/>
	<path class="st2" d="M19.7,74.2c-10.4,0-18.2-8.1-18.2-18.3v-0.1c0-10.1,7.6-18.3,18.5-18.3c6.7,0,10.7,2.2,14,5.5l-5,5.7
		c-2.7-2.5-5.5-4-9.1-4c-6,0-10.3,5-10.3,11v0.1c0,6.1,4.2,11.1,10.3,11.1c4.1,0,6.5-1.6,9.3-4.2l5,5C30.6,71.8,26.6,74.2,19.7,74.2
		z"/>
	<path class="st2" d="M64.9,73.6l-3.2-8h-15l-3.2,8h-8l15.2-35.7h7.2l15.2,35.7H64.9z M54.2,47.2l-4.7,11.5h9.4L54.2,47.2z"/>
	<path class="st2" d="M104.2,73.6V50.4l-10,15.1H94l-9.9-15v23h-7.7V38.1h8.4l9.3,15l9.3-15h8.4v35.5H104.2z"/>
	<path class="st2" d="M132.2,62.9h-5.9v10.6h-7.8V38.1H133c8.5,0,13.6,5,13.6,12.3v0.1C146.6,58.7,140.2,62.9,132.2,62.9z
		 M138.7,50.5c0-3.5-2.4-5.4-6.3-5.4h-6v10.8h6.2C136.5,55.9,138.8,53.6,138.7,50.5L138.7,50.5L138.7,50.5z"/>
	<path class="st2" d="M167.2,73.6h-16.9V38.1h16.5c7.2,0,11.7,3.6,11.7,9.2v0.1c0,4-2.1,6.2-4.7,7.7c4.1,1.6,6.6,4,6.6,8.7v0.1
		C180.5,70.3,175.2,73.6,167.2,73.6z M170.7,48.6c0-2.3-1.8-3.6-5.1-3.6h-7.7v7.5h7.2c3.4,0,5.6-1.1,5.6-3.7V48.6z M172.7,62.8
		c0-2.4-1.8-3.9-5.8-3.9h-9v7.8h9.3C170.6,66.7,172.7,65.5,172.7,62.8L172.7,62.8z"/>
	<path class="st2" d="M184.9,73.6V38.1h26.8v7h-19v7.2h16.7v6.9h-16.7v7.4H212v6.9L184.9,73.6L184.9,73.6z"/>
	<path class="st2" d="M216.8,73.6V38.1h7.8v28.4h17.7v7.1H216.8z"/>
	<path class="st2" d="M246.2,73.6V38.1h7.8v28.4h17.7v7.1H246.2z"/>
</g>
</svg>
